<?xml version="1.0" encoding="UTF-8"?>
<svg version="1.1" xmlns="http://www.w3.org/2000/svg" width="1024" height="1024">
<path d="M0 0 C37.95 0 75.9 0 115 0 C115 37.29 115 74.58 115 113 C151.96 113 188.92 113 227 113 C227 75.71 227 38.42 227 0 C265.28 0 303.56 0 343 0 C343 37.29 343 74.58 343 113 C379.96 113 416.92 113 455 113 C455 75.71 455 38.42 455 0 C492.95 0 530.9 0 570 0 C570 74.91 570 149.82 570 227 C644.91 227 719.82 227 797 227 C797 264.95 797 302.9 797 342 C759.71 342 722.42 342 684 342 C684 378.96 684 415.92 684 454 C721.29 454 758.58 454 797 454 C797 492.28 797 530.56 797 570 C759.71 570 722.42 570 684 570 C684 606.96 684 643.92 684 682 C721.29 682 758.58 682 797 682 C797 719.95 797 757.9 797 797 C722.09 797 647.18 797 570 797 C570 871.91 570 946.82 570 1024 C532.05 1024 494.1 1024 455 1024 C455 986.71 455 949.42 455 911 C418.04 911 381.08 911 343 911 C343 948.29 343 985.58 343 1024 C304.72 1024 266.44 1024 227 1024 C227 986.71 227 949.42 227 911 C190.04 911 153.08 911 115 911 C115 948.29 115 985.58 115 1024 C77.05 1024 39.1 1024 0 1024 C0 949.09 0 874.18 0 797 C-74.91 797 -149.82 797 -227 797 C-227 759.05 -227 721.1 -227 682 C-189.71 682 -152.42 682 -114 682 C-114 645.04 -114 608.08 -114 570 C-151.29 570 -188.58 570 -227 570 C-227 531.72 -227 493.44 -227 454 C-189.71 454 -152.42 454 -114 454 C-114 417.04 -114 380.08 -114 342 C-151.29 342 -188.58 342 -227 342 C-227 304.05 -227 266.1 -227 227 C-152.09 227 -77.18 227 0 227 C0 152.09 0 77.18 0 0 Z M1 228 C1 415.44 1 602.88 1 796 C188.44 796 375.88 796 569 796 C569 608.56 569 421.12 569 228 C381.56 228 194.12 228 1 228 Z " fill="#AD5CFF" transform="translate(227,0)"/>
</svg>
